<?xml version="1.0" standalone="no"?>
<!DOCTYPE svg PUBLIC "-//W3C//DTD SVG 20010904//EN"
 "http://www.w3.org/TR/2001/REC-SVG-20010904/DTD/svg10.dtd">
<svg version="1.0" xmlns="http://www.w3.org/2000/svg"
 width="3380.000000pt" height="1063.000000pt" viewBox="0 0 3380.000000 1063.000000"
 preserveAspectRatio="xMidYMid meet">

<g transform="translate(0.000000,1063.000000) scale(0.100000,-0.100000)"
fill="#000000" stroke="none">
<path d="M7155 9620 c-462 -47 -919 -187 -1310 -402 -109 -60 -296 -177 -283
-178 4 0 148 54 320 119 562 213 738 261 1143 307 180 20 568 23 725 5 401
-46 707 -134 1045 -301 442 -218 814 -527 1165 -966 454 -569 769 -1261 885
-1947 46 -270 58 -451 52 -757 -9 -441 -62 -752 -196 -1160 -189 -573 -501
-1097 -919 -1543 -504 -538 -1174 -983 -1947 -1295 -1475 -594 -3027 -454
-4565 413 -202 114 -254 140 -295 149 -93 20 297 -264 590 -429 1369 -773
3046 -877 4549 -282 317 125 710 332 989 519 839 564 1507 1392 1803 2235 l29
82 450 3 c448 4 450 4 546 30 413 112 684 431 739 871 16 126 8 413 -15 517
-79 358 -319 634 -648 745 -138 46 -233 55 -597 55 l-335 0 -42 173 c-194 796
-601 1515 -1174 2072 -535 520 -1202 846 -1949 950 -136 19 -617 28 -755 15z
m4607 -3631 c172 -36 290 -162 343 -364 37 -141 37 -510 0 -650 -37 -141 -102
-241 -197 -305 -77 -51 -163 -70 -317 -70 l-121 0 0 700 0 700 120 0 c65 0
143 -5 172 -11z"/>
<path d="M5510 9020 c-8 -5 -12 -11 -9 -14 3 -3 14 1 25 9 21 16 8 20 -16 5z"/>
<path d="M8238 7935 l-508 -545 -402 -2 -402 -3 -29 -235 c-16 -129 -30 -237
-32 -239 -2 -2 -23 12 -47 31 -303 244 -738 398 -1242 438 -79 6 -608 10
-1357 10 -1006 0 -1229 -2 -1229 -13 0 -7 -130 -1082 -290 -2389 -159 -1307
-290 -2384 -290 -2392 0 -14 121 -16 1248 -16 775 0 1291 4 1362 10 143 13
326 43 460 76 57 13 104 23 106 21 2 -2 -102 -170 -231 -375 -129 -204 -235
-375 -235 -380 0 -5 20 -23 44 -40 l44 -32 588 605 c323 333 592 605 597 605
5 0 6 -17 3 -37 -5 -33 -56 -441 -56 -450 0 -2 413 -3 918 -3 l917 0 110 913
110 912 573 3 572 2 5 23 c7 36 135 1073 135 1101 l0 26 -571 0 -571 0 6 38
c3 20 15 114 26 207 12 94 23 180 26 193 l4 22 745 0 c470 0 745 4 745 10 0 5
36 310 80 677 44 367 80 671 80 675 0 5 -450 8 -1001 8 -879 0 -1000 2 -995
15 3 8 138 239 299 514 l295 499 -43 31 c-24 17 -47 31 -52 31 -4 0 -236 -246
-515 -545z m173 -12 c-5 -10 -271 -461 -590 -1003 -319 -541 -579 -986 -577
-987 1 -1 215 56 476 127 260 72 475 128 477 126 2 -2 -275 -358 -615 -792
-531 -678 -615 -789 -596 -792 13 -2 185 11 384 28 198 17 365 30 370 28 8 -2
-1833 -1906 -2092 -2163 l-80 -80 34 55 c19 30 263 416 542 858 279 442 506
805 504 807 -2 2 -176 -19 -388 -46 -212 -27 -388 -48 -391 -46 -3 1 231 352
519 780 288 428 523 779 521 781 -2 1 -175 -24 -383 -56 -209 -32 -381 -56
-384 -54 -3 4 2269 2446 2276 2446 1 0 -2 -8 -7 -17z m-3271 -1933 c108 -31
184 -75 269 -155 123 -117 210 -268 253 -441 32 -130 32 -376 -1 -524 -97
-438 -392 -784 -761 -890 -62 -19 -110 -23 -282 -27 l-208 -5 0 21 c0 32 249
2023 255 2040 9 23 378 9 475 -19z"/>
<path d="M19290 6371 c0 -217 -24 -332 -104 -488 l-26 -52 112 -60 112 -61 44
42 c85 84 185 260 217 383 10 42 15 109 15 227 l0 168 -185 0 -185 0 0 -159z"/>
<path d="M20628 6425 c-315 -51 -548 -219 -619 -444 -27 -86 -29 -231 -5 -316
72 -245 262 -394 706 -550 158 -56 285 -112 334 -150 49 -37 86 -115 86 -182
0 -71 -18 -111 -69 -155 -61 -52 -144 -73 -263 -65 -218 13 -316 98 -343 300
l-6 47 -265 0 -264 0 0 -47 c1 -172 96 -367 238 -486 71 -60 251 -148 357
-176 281 -71 614 -47 825 59 215 108 323 281 324 515 0 173 -47 301 -155 419
-123 134 -264 210 -609 331 -216 76 -327 141 -366 216 -18 35 -18 110 0 152
19 44 71 91 131 119 70 32 238 33 305 2 93 -43 144 -112 158 -211 l7 -48 265
0 265 0 -3 55 c-17 302 -236 529 -587 607 -98 21 -338 26 -447 8z"/>
<path d="M28918 6425 c-315 -51 -548 -219 -619 -444 -27 -86 -29 -231 -5 -316
72 -245 262 -394 706 -550 158 -56 285 -112 334 -150 49 -37 86 -115 86 -182
0 -71 -18 -111 -69 -155 -61 -52 -144 -73 -263 -65 -218 13 -316 98 -343 300
l-6 47 -265 0 -264 0 0 -47 c1 -172 96 -367 238 -486 71 -60 251 -148 357
-176 281 -71 614 -47 825 59 215 108 323 281 324 515 0 173 -47 301 -155 419
-123 134 -264 210 -609 331 -216 76 -327 141 -366 216 -18 35 -18 110 0 152
19 44 71 91 131 119 70 32 238 33 305 2 93 -43 144 -112 158 -211 l7 -48 265
0 265 0 -3 55 c-17 302 -236 529 -587 607 -98 21 -338 26 -447 8z"/>
<path d="M13567 6403 c-6 -10 -798 -2172 -805 -2195 -4 -17 14 -18 281 -18
l285 0 15 48 c7 26 36 120 63 210 l49 162 366 0 366 0 64 -210 64 -210 288 0
c270 0 288 1 283 18 -4 9 -187 508 -409 1107 l-402 1090 -252 3 c-138 1 -254
-1 -256 -5z m353 -935 c51 -167 104 -336 116 -375 l22 -73 -237 0 -238 0 116
375 c64 206 118 375 121 375 3 0 48 -136 100 -302z"/>
<path d="M15090 5300 l0 -1110 270 0 270 0 0 1110 0 1110 -270 0 -270 0 0
-1110z"/>
<path d="M16000 5300 l0 -1110 730 0 730 0 0 205 0 205 -465 0 -465 0 0 905 0
905 -265 0 -265 0 0 -1110z"/>
<path d="M17100 6405 c0 -3 160 -325 355 -715 l355 -710 0 -395 0 -395 270 0
270 0 0 395 0 395 355 710 c195 390 355 712 355 715 0 3 -129 5 -287 5 l-288
0 -200 -475 c-110 -261 -202 -475 -205 -475 -3 0 -96 213 -206 473 l-201 472
-286 3 c-158 1 -287 0 -287 -3z"/>
<path d="M22720 5300 l0 -1110 265 0 265 0 0 445 0 445 430 0 430 0 0 205 0
205 -430 0 -430 0 0 255 0 255 475 0 475 0 0 205 0 205 -740 0 -740 0 0 -1110z"/>
<path d="M24430 5300 l0 -1110 730 0 730 0 0 205 0 205 -465 0 -465 0 0 905 0
905 -265 0 -265 0 0 -1110z"/>
<path d="M26787 6403 c-6 -10 -798 -2172 -805 -2195 -4 -17 14 -18 281 -18
l285 0 15 48 c7 26 36 120 63 210 l49 162 366 0 366 0 64 -210 64 -210 288 0
c270 0 288 1 283 18 -4 9 -187 508 -409 1107 l-402 1090 -252 3 c-138 1 -254
-1 -256 -5z m353 -935 c51 -167 104 -336 116 -375 l22 -73 -237 0 -238 0 116
375 c64 206 118 375 121 375 3 0 48 -136 100 -302z"/>
<path d="M30240 5300 l0 -1110 265 0 265 0 0 465 0 465 395 0 395 0 0 -465 0
-465 265 0 265 0 0 1110 0 1110 -265 0 -265 0 0 -440 0 -440 -395 0 -395 0 0
440 0 440 -265 0 -265 0 0 -1110z"/>
</g>
</svg>
