<?xml version="1.0" standalone="no"?>
<!DOCTYPE svg PUBLIC "-//W3C//DTD SVG 20010904//EN"
 "http://www.w3.org/TR/2001/REC-SVG-20010904/DTD/svg10.dtd">
<svg version="1.0" xmlns="http://www.w3.org/2000/svg"
 width="1938.000000pt" height="1801.000000pt" viewBox="0 0 1938.000000 1801.000000"
 preserveAspectRatio="xMidYMid meet">

<g transform="translate(0.000000,1801.000000) scale(0.100000,-0.100000)"
fill="#000000" stroke="none">
<path d="M10640 16670 c-949 -72 -1824 -342 -2635 -813 -140 -82 -348 -217
-342 -223 5 -5 91 26 571 211 894 342 1191 428 1766 509 533 76 1133 87 1630
30 1565 -178 2905 -994 3969 -2417 1835 -2455 2028 -5574 502 -8122 -226 -378
-473 -718 -790 -1085 -151 -176 -567 -594 -746 -749 -610 -532 -1307 -990
-2135 -1400 -1090 -541 -2132 -841 -3290 -947 -239 -22 -871 -30 -1137 -15
-1558 89 -3044 570 -4673 1515 -98 57 -242 116 -283 116 -24 0 133 -145 248
-229 715 -521 1525 -939 2380 -1228 744 -252 1465 -395 2340 -465 215 -17
1056 -17 1270 0 376 30 653 63 948 113 1734 291 3323 1038 4625 2176 200 174
542 512 724 714 986 1099 1584 2273 1852 3636 105 533 142 969 133 1583 -8
585 -61 1042 -183 1579 -389 1721 -1390 3315 -2699 4299 -904 678 -1919 1075
-3070 1197 -175 19 -796 28 -975 15z"/>
<path d="M7590 15606 c-19 -7 -36 -20 -38 -29 -5 -24 8 -21 48 13 39 33 39 33
-10 16z"/>
<path d="M12490 13888 c-410 -440 -821 -881 -913 -979 l-168 -179 -778 0 -778
0 -53 -437 c-29 -241 -56 -442 -60 -446 -4 -5 -44 21 -88 56 -107 87 -342 241
-477 314 -532 287 -1152 451 -1905 503 -90 6 -1007 10 -2417 10 l-2273 0 -5
-22 c-2 -13 -245 -2001 -540 -4418 -294 -2417 -537 -4410 -540 -4427 l-6 -33
2243 0 c2298 0 2399 2 2748 40 298 34 706 114 933 184 41 12 48 12 43 0 -3 -7
-204 -327 -446 -710 -242 -384 -437 -700 -433 -704 4 -3 26 -20 49 -38 l40
-31 974 1002 973 1002 130 87 c72 49 132 87 133 85 2 -1 -22 -200 -51 -442
-30 -242 -55 -448 -55 -457 0 -17 87 -18 1694 -18 l1694 0 6 38 c5 32 406
3338 406 3348 0 2 477 4 1060 4 583 0 1060 1 1060 3 1 1 61 478 134 1060 l132
1057 -1058 0 c-959 0 -1058 1 -1058 16 0 9 23 195 50 414 28 219 50 403 50
409 0 8 395 11 1380 11 759 0 1380 2 1380 5 0 3 68 568 150 1257 83 688 150
1257 150 1265 0 11 -310 13 -1885 13 -1037 0 -1885 3 -1885 6 0 3 248 426 550
939 303 514 550 938 550 943 0 7 -86 73 -93 72 -1 -1 -337 -361 -747 -802z
m412 240 c-179 -295 -2353 -4000 -2349 -4004 2 -3 409 106 902 241 494 135
900 244 901 242 2 -2 -521 -671 -1161 -1487 -640 -817 -1164 -1487 -1164
-1490 -1 -3 324 23 722 57 397 34 732 62 744 60 18 -2 -423 -461 -2208 -2297
-2411 -2480 -2285 -2352 -2273 -2329 5 9 508 804 1118 1768 609 964 1106 1755
1102 1758 -3 3 -330 -36 -726 -87 -397 -50 -724 -90 -726 -87 -3 2 431 652
964 1443 533 792 964 1440 958 1442 -7 1 -338 -47 -736 -108 -398 -60 -725
-109 -726 -107 -3 3 4669 5017 4674 5017 2 0 -5 -15 -16 -32z m-6537 -3949
c382 -47 691 -248 918 -599 193 -298 279 -611 279 -1010 -1 -286 -36 -510
-124 -778 -115 -350 -306 -653 -579 -917 -247 -239 -495 -385 -772 -455 -157
-39 -287 -50 -615 -50 l-285 0 6 38 c3 20 110 874 237 1897 127 1023 233 1866
235 1873 6 16 569 17 700 1z"/>
</g>
</svg>
